<?xml version="1.0" ?><svg id="Layer_1" style="enable-background:new 0 0 24 24;" version="1.1" viewBox="0 0 24 24" xml:space="preserve" xmlns="http://www.w3.org/2000/svg" xmlns:xlink="http://www.w3.org/1999/xlink"><style type="text/css">
	.st0{fill:none;stroke:#000000;stroke-width:1.6724;stroke-linecap:round;stroke-linejoin:round;stroke-miterlimit:10;}
	.st1{fill:none;stroke:#000000;stroke-width:1.5;stroke-linecap:round;stroke-linejoin:round;stroke-miterlimit:10;}
	.st2{fill:none;stroke:#000000;stroke-width:1.5;stroke-linejoin:round;stroke-miterlimit:10;}
</style><g><g><g><path class="st1" d="M15.3,0.8H4.9C4.2,0.8,3.7,1.3,3.7,2V22c0,0.7,0.6,1.3,1.3,1.3h14.1c0.7,0,1.3-0.6,1.3-1.3V5.8     c0-0.3-0.1-0.7-0.4-0.9l-3.7-3.7C16,0.9,15.7,0.8,15.3,0.8z"/></g><path class="st2" d="M19.8,5.7h-3.2c-0.7,0-1.3-0.6-1.3-1.3V1.3"/></g><line class="st1" x1="7.1" x2="16.9" y1="18" y2="18"/><line class="st1" x1="7.1" x2="16.9" y1="14.3" y2="14.3"/><line class="st1" x1="7.1" x2="16.9" y1="10.6" y2="10.6"/></g></svg>