<?xml version="1.0" ?><svg data-name="Layer 1" id="Layer_1" viewBox="0 0 64 64" xmlns="http://www.w3.org/2000/svg"><path d="M60.5586,26.9639c-.0017-.0094-.0081-.0162-.01-.0254a28.785,28.785,0,0,0-3.41-9.3684c-.011-.0228-.0108-.0478-.0237-.07s-.0341-.0341-.0482-.0546A29.1252,29.1252,0,0,0,54.2534,13.43c-.0159-.0225-.0206-.0493-.0386-.0707a.901.901,0,0,0-.0737-.0589A29.2477,29.2477,0,0,0,50.7,9.86a.93.93,0,0,0-.06-.0749c-.0217-.0183-.0489-.0229-.0716-.039a29.14,29.14,0,0,0-4.0157-2.8134c-.02-.0137-.0319-.0347-.0533-.047s-.0461-.0123-.0683-.0231a28.7855,28.7855,0,0,0-9.3657-3.41c-.0108-.0022-.0189-.01-.03-.0117s-.02.0023-.0312.0008a28.608,28.608,0,0,0-10.01,0c-.0107.0015-.0206-.0027-.0312-.0008s-.0191.01-.03.0117a28.785,28.785,0,0,0-9.3656,3.41c-.0222.0107-.0467.0105-.0684.0231s-.0331.0333-.0533.047a29.1365,29.1365,0,0,0-4.0159,2.8135c-.0227.016-.05.0207-.0714.0389a.93.93,0,0,0-.06.0749,29.2528,29.2528,0,0,0-3.441,3.4412.9326.9326,0,0,0-.0734.0586c-.018.0214-.0227.0482-.0386.0707A29.1329,29.1329,0,0,0,6.933,17.4453c-.014.0206-.0355.0327-.0482.0547s-.0127.0473-.0237.07a28.785,28.785,0,0,0-3.41,9.3684c-.0019.0092-.0083.016-.01.0254s.002.0175.0006.0266a28.6091,28.6091,0,0,0,0,10.019c.0014.0091-.0022.0175-.0006.0266s.0084.0185.0106.0288A28.7839,28.7839,0,0,0,6.8611,46.43c.011.0228.0108.0478.0237.07a.9736.9736,0,0,0,.0655.0847A29.1249,29.1249,0,0,0,9.7466,50.57c.0159.0225.0206.0493.0386.0707s.0465.0307.0669.0512A29.2641,29.2641,0,0,0,13.3,54.14a.93.93,0,0,0,.06.0749c.0243.02.0537.0279.0793.0456a29.1344,29.1344,0,0,0,4.008,2.8068c.02.0137.0319.0347.0533.047a.9485.9485,0,0,0,.1.0413,28.7864,28.7864,0,0,0,9.334,3.3919c.0108.0022.0189.01.03.0117.0231.004.0459.0036.069.006a28.6151,28.6151,0,0,0,9.9342,0c.0231-.0024.0459-.002.069-.006.011-.002.0191-.01.03-.0117A28.7864,28.7864,0,0,0,46.4,57.156a.9485.9485,0,0,0,.1-.0413c.0214-.0123.0331-.0333.0533-.047a29.1344,29.1344,0,0,0,4.008-2.8068c.0256-.0177.055-.0252.0793-.0456a.93.93,0,0,0,.06-.0749,29.2641,29.2641,0,0,0,3.4475-3.4486c.02-.02.0481-.0286.0669-.0512s.0227-.0482.0386-.0707A29.1249,29.1249,0,0,0,57.05,46.5847a.9736.9736,0,0,0,.0655-.0847c.0129-.0223.0127-.0473.0237-.07a28.7839,28.7839,0,0,0,3.4091-9.365c.0022-.01.0088-.0183.0106-.0288s-.002-.0175-.0006-.0267a28.608,28.608,0,0,0,0-10.0188C60.5566,26.9814,60.56,26.973,60.5586,26.9639ZM57.6934,40.2874,53.9345,38.92c.2013-.6366.3717-1.2863.5176-1.9452l3.9439.6955A26.7513,26.7513,0,0,1,57.6934,40.2874ZM55.8591,44.62l-3.4669-2.0016c.31-.5929.597-1.1992.8554-1.8209l3.7591,1.3681A26.88,26.88,0,0,1,55.8591,44.62Zm-2.5614,3.9456-3.0636-2.5705q.6126-.7964,1.1546-1.6463l3.4659,2.001Q54.1309,47.498,53.2977,48.5656ZM46.35,54.8544l-2.0011-3.4657q.849-.5427,1.6465-1.1548l2.5705,3.0636Q47.4988,54.1294,46.35,54.8544Zm-4.1848,2.1524-1.3679-3.7591c.6218-.2584,1.2282-.5456,1.8212-.8555L44.62,55.859A26.88,26.88,0,0,1,42.1652,57.0068ZM19.38,55.859l2.0017-3.4668c.593.31,1.1994.5971,1.8212.8555l-1.3679,3.7591A26.88,26.88,0,0,1,19.38,55.859Zm-3.9457-2.5615,2.57-3.0636q.7964.6128,1.6465,1.1548L17.65,54.8544Q16.5016,54.1308,15.4341,53.2975Zm9.6463.6371c.6367.2013,1.2865.3716,1.9455.5175l-.6954,3.944a26.7332,26.7332,0,0,1-2.6179-.7027Zm3.9147.8628c.66.0866,1.3283.1482,2.0049.1773v4a27.03,27.03,0,0,1-2.7-.2345ZM33,54.9747c.6766-.0291,1.3445-.0907,2.0049-.1773L35.7,58.74a27.03,27.03,0,0,1-2.7.2345Zm3.9741-.5226c.659-.1459,1.3088-.3162,1.9455-.5175l1.3678,3.7588a26.7332,26.7332,0,0,1-2.6179.7027ZM32,53A21,21,0,1,1,53,32,21.0239,21.0239,0,0,1,32,53ZM9.1454,46.35l3.4659-2.001q.5426.8489,1.1546,1.6463l-3.0636,2.5705Q9.8706,47.4985,9.1454,46.35ZM6.9933,42.1656l3.7591-1.3681c.2584.6217.5455,1.228.8554,1.8209L8.1409,44.62A26.88,26.88,0,0,1,6.9933,42.1656ZM5.604,37.67l3.9439-.6955c.1459.6589.3163,1.3086.5176,1.9452L6.3066,40.2874A26.7513,26.7513,0,0,1,5.604,37.67Zm.7026-13.9574L10.0655,25.08c-.2013.6366-.3717,1.2863-.5176,1.9452L5.604,26.33A26.7513,26.7513,0,0,1,6.3066,23.7126ZM8.1409,19.38l3.4669,2.0016c-.31.5929-.597,1.1992-.8554,1.8209L6.9933,21.8344A26.88,26.88,0,0,1,8.1409,19.38Zm2.5614-3.9456,3.0636,2.57q-.6126.7963-1.1546,1.6463L9.1454,17.65Q9.8692,16.5019,10.7023,15.4344Zm-1.5,13.5613c-.0866.66-.1482,1.3279-.1773,2.0043h-4A27.0249,27.0249,0,0,1,5.26,28.3ZM5.0254,33h4c.0291.6764.0907,1.3442.1773,2.0043L5.26,35.7A27.0249,27.0249,0,0,1,5.0254,33ZM17.65,9.1456l2.0011,3.4657q-.849.5427-1.6465,1.1548l-2.57-3.0636Q16.5012,9.8706,17.65,9.1456Zm4.1848-2.1524,1.3679,3.7591c-.6218.2584-1.2282.5456-1.8212.8555L19.38,8.141A26.88,26.88,0,0,1,21.8348,6.9932ZM44.62,8.141l-2.0017,3.4668c-.593-.31-1.1994-.5971-1.8212-.8555l1.3679-3.7591A26.88,26.88,0,0,1,44.62,8.141Zm3.9457,2.5615-2.5705,3.0636q-.7963-.6128-1.6465-1.1548L46.35,9.1456Q47.4984,9.8692,48.5659,10.7025ZM38.92,10.0654c-.6367-.2013-1.2865-.3716-1.9455-.5175l.6954-3.944a26.7332,26.7332,0,0,1,2.6179.7027Zm-3.9147-.8628c-.66-.0866-1.3283-.1482-2.0049-.1773v-4a27.03,27.03,0,0,1,2.7.2345ZM31,9.0253c-.6766.0291-1.3445.0907-2.0049.1773L28.3,5.26A27.03,27.03,0,0,1,31,5.0254Zm-3.9741.5226c-.659.1459-1.3088.3162-1.9455.5175L23.7126,6.3066a26.7332,26.7332,0,0,1,2.6179-.7027ZM54.8546,17.65l-3.4659,2.001q-.5425-.8488-1.1546-1.6463l3.0636-2.57Q54.1295,16.5015,54.8546,17.65Zm2.1521,4.1842-3.7591,1.3681c-.2584-.6217-.5455-1.228-.8554-1.8209L55.8591,19.38A26.88,26.88,0,0,1,57.0067,21.8344ZM58.396,26.33l-3.9439.6955c-.1459-.6589-.3163-1.3086-.5176-1.9452l3.7589-1.3677A26.7513,26.7513,0,0,1,58.396,26.33ZM54.9747,31c-.0291-.6764-.0907-1.3442-.1773-2.0043L58.74,28.3a27.0249,27.0249,0,0,1,.2344,2.7Zm-.1773,4.0043c.0866-.66.1482-1.3279.1773-2.0043h4a27.0249,27.0249,0,0,1-.2344,2.7ZM52.0157,13.9,48.95,16.4719q-.68-.7415-1.4221-1.422L50.1,11.9841Q51.1051,12.8936,52.0157,13.9ZM13.9,11.9841,16.4722,15.05q-.7416.68-1.4221,1.422L11.9843,13.9Q12.8938,12.8946,13.9,11.9841ZM11.9843,50.1005,15.05,47.5281q.68.7414,1.4221,1.422L13.9,52.0159Q12.895,51.1064,11.9843,50.1005ZM50.1,52.0159,47.5278,48.95q.7416-.68,1.4221-1.422l3.0658,2.5724Q51.1062,51.1054,50.1,52.0159Z"/><path d="M43,22a1,1,0,0,0-1-1H22a1,1,0,0,0,0,2h8a5.0083,5.0083,0,0,1,4.8989,4H22a1,1,0,0,0,0,2H34.8989A5.0083,5.0083,0,0,1,30,33H22a1,1,0,0,0-.4961,1.8682l14,8a1,1,0,1,0,.9922-1.7364L25.7656,35H30a7.0052,7.0052,0,0,0,6.92-6H42a1,1,0,0,0,0-2H36.92A6.9822,6.9822,0,0,0,34.89,23H42A1,1,0,0,0,43,22Z"/></svg>